<svg xmlns="http://www.w3.org/2000/svg" version="1.1" xmlns:xlink="http://www.w3.org/1999/xlink" xmlns:svgjs="http://svgjs.dev/svgjs" viewBox="0 0 10.069801825055293 3.511263734523393"><g transform="matrix(1,0,0,1,2.9937654705302443,1.3150818672616964)"><g><path d=" M 0.045787499999999995 0.6620624999999999 Q 0.04826249999999999 0.7152749999999999 0.07363125 0.7585874999999999 Q 0.09899999999999999 0.8018999999999998 0.14293124999999998 0.8322187499999999 Q 0.1868625 0.8625374999999998 0.24626249999999997 0.8792437499999999 Q 0.30566249999999995 0.8959499999999999 0.3762 0.8959499999999999 Q 0.44797499999999996 0.8959499999999999 0.5055187499999999 0.8786249999999999 Q 0.5630624999999999 0.8612999999999998 0.6039 0.8291249999999999 Q 0.6447375 0.7969499999999999 0.6670124999999999 0.7511625 Q 0.6892874999999999 0.7053749999999999 0.6892874999999999 0.6496875 Q 0.6892874999999999 0.5729624999999999 0.650925 0.5240812499999999 Q 0.6125624999999999 0.4751999999999999 0.5550187499999999 0.44240624999999995 Q 0.49747499999999995 0.40961249999999993 0.43003125 0.38733749999999995 Q 0.36258749999999995 0.36506249999999996 0.30504374999999995 0.3403124999999999 Q 0.24749999999999997 0.31556249999999997 0.20913749999999998 0.2833874999999999 Q 0.17077499999999998 0.25121249999999995 0.17077499999999998 0.19799999999999995 Q 0.17077499999999998 0.1683 0.18376874999999998 0.14231249999999995 Q 0.19676249999999998 0.1163249999999999 0.22213124999999997 0.09714374999999997 Q 0.24749999999999997 0.07796249999999993 0.28462499999999996 0.06620624999999991 Q 0.32175 0.05445 0.37001249999999997 0.05445 Q 0.45044999999999996 0.05445 0.5067562499999999 0.08848124999999996 Q 0.5630624999999999 0.12251249999999991 0.5729624999999999 0.19552499999999995 L 0.6571125 0.19552499999999995 Q 0.6496875 0.14973749999999997 0.6236999999999999 0.11323125 Q 0.5977125 0.07672499999999993 0.5581124999999999 0.05135624999999999 Q 0.5185124999999999 0.02598749999999994 0.46839374999999994 0.012993749999999915 Q 0.41827499999999995 0 0.36382499999999995 0 Q 0.30689999999999995 0 0.25554374999999996 0.014849999999999919 Q 0.2041875 0.02969999999999995 0.16520624999999997 0.058162500000000006 Q 0.12622499999999998 0.08662499999999995 0.10333124999999999 0.12993749999999993 Q 0.0804375 0.1732499999999999 0.0804375 0.2289374999999999 Q 0.0804375 0.30194999999999994 0.11756249999999999 0.3464999999999999 Q 0.15468749999999998 0.39104999999999995 0.21099374999999998 0.4207499999999999 Q 0.2673 0.4504499999999999 0.33288749999999995 0.47148749999999995 Q 0.39847499999999997 0.49252499999999994 0.45478124999999997 0.5191312499999999 Q 0.5110874999999999 0.5457375 0.5482125 0.5840999999999998 Q 0.5853375 0.6224624999999999 0.5853375 0.6868124999999999 Q 0.5853375 0.7672499999999999 0.52655625 0.8043749999999998 Q 0.46777499999999994 0.8414999999999999 0.37001249999999997 0.8414999999999999 Q 0.29205 0.8414999999999999 0.24502499999999997 0.8210812499999999 Q 0.19799999999999998 0.8006624999999998 0.17325 0.7721999999999999 Q 0.1485 0.7437374999999999 0.13983749999999998 0.7134187499999999 Q 0.13117499999999999 0.6830999999999999 0.12993749999999998 0.6620624999999999 L 0.045787499999999995 0.6620624999999999 Z M 1.0895432189941405 0.4504499999999999 L 1.6080557189941405 0.4504499999999999 L 1.6080557189941405 0.8810999999999999 L 1.7206682189941405 0.8810999999999999 L 1.7206682189941405 0.014849999999999919 L 1.6080557189941405 0.014849999999999919 L 1.6080557189941405 0.3935249999999999 L 1.0895432189941405 0.3935249999999999 L 1.0895432189941405 0.014849999999999919 L 0.9769307189941404 0.014849999999999919 L 0.9769307189941404 0.8810999999999999 L 1.0895432189941405 0.8810999999999999 L 1.0895432189941405 0.4504499999999999 Z M 1.986040667724609 0.4479749999999999 Q 1.986040667724609 0.5172749999999999 2.012646917724609 0.59585625 Q 2.039253167724609 0.6744374999999999 2.096178167724609 0.7412624999999999 Q 2.153103167724609 0.8080874999999998 2.240965667724609 0.8520187499999999 Q 2.328828167724609 0.8959499999999999 2.451340667724609 0.8959499999999999 Q 2.534253167724609 0.8959499999999999 2.6016969177246088 0.8755312499999999 Q 2.669140667724609 0.8551124999999999 2.722971917724609 0.8204624999999999 Q 2.776803167724609 0.7858124999999999 2.816403167724609 0.7406437499999999 Q 2.8560031677246087 0.6954749999999998 2.881371917724609 0.6453562499999999 Q 2.906740667724609 0.5952374999999999 2.9197344177246087 0.5445 Q 2.932728167724609 0.49376249999999994 2.932728167724609 0.4479749999999999 Q 2.932728167724609 0.378675 2.904265667724609 0.30009374999999994 Q 2.8758031677246088 0.2215124999999999 2.816403167724609 0.15468749999999998 Q 2.757003167724609 0.08786249999999995 2.666046917724609 0.04393124999999998 Q 2.5750906677246093 0 2.451340667724609 0 Q 2.328828167724609 0 2.240965667724609 0.043312499999999976 Q 2.153103167724609 0.08662499999999995 2.096178167724609 0.15283124999999997 Q 2.039253167724609 0.2190375 2.012646917724609 0.29823749999999993 Q 1.986040667724609 0.3774375 1.986040667724609 0.4479749999999999 Z M 2.107315667724609 0.4479749999999999 Q 2.107315667724609 0.36134999999999995 2.133921917724609 0.2889562499999999 Q 2.160528167724609 0.2165625 2.206934417724609 0.1645875 Q 2.253340667724609 0.1126125 2.316453167724609 0.08353124999999995 Q 2.379565667724609 0.05445 2.453815667724609 0.05445 Q 2.526828167724609 0.05445 2.5917969177246087 0.08353124999999995 Q 2.656765667724609 0.1126125 2.705646917724609 0.1645875 Q 2.754528167724609 0.2165625 2.782990667724609 0.2889562499999999 Q 2.811453167724609 0.36134999999999995 2.811453167724609 0.4479749999999999 Q 2.811453167724609 0.5346 2.782990667724609 0.6069937499999999 Q 2.754528167724609 0.6793874999999999 2.705646917724609 0.7313624999999999 Q 2.656765667724609 0.7833374999999999 2.5917969177246087 0.8124187499999999 Q 2.526828167724609 0.8414999999999999 2.453815667724609 0.8414999999999999 Q 2.379565667724609 0.8414999999999999 2.316453167724609 0.8124187499999999 Q 2.253340667724609 0.7833374999999999 2.206934417724609 0.7313624999999999 Q 2.160528167724609 0.6793874999999999 2.133921917724609 0.6069937499999999 Q 2.107315667724609 0.5346 2.107315667724609 0.4479749999999999 Z M 3.3107723327636713 0.5197499999999999 Q 3.3429473327636714 0.5284125 3.3800723327636715 0.5339812499999999 Q 3.4171973327636715 0.53955 3.4617473327636716 0.53955 Q 3.5372348327636716 0.53955 3.5953973327636715 0.5185124999999999 Q 3.6535598327636714 0.49747499999999995 3.6925410827636713 0.4609687499999999 Q 3.7315223327636713 0.4244624999999999 3.7513223327636713 0.37681875 Q 3.7711223327636714 0.3291749999999999 3.7711223327636714 0.2747249999999999 Q 3.7711223327636714 0.2227499999999999 3.7537973327636713 0.1751062499999999 Q 3.7364723327636713 0.12746249999999992 3.7012035827636716 0.09219374999999996 Q 3.6659348327636714 0.056925 3.6127223327636715 0.03588749999999996 Q 3.5595098327636716 0.014849999999999919 3.4877348327636715 0.014849999999999919 L 3.1981598327636713 0.014849999999999919 L 3.1981598327636713 0.8810999999999999 L 3.3107723327636713 0.8810999999999999 L 3.3107723327636713 0.5197499999999999 Z M 3.3107723327636713 0.06929999999999992 L 3.4407098327636714 0.06929999999999992 Q 3.4926848327636715 0.06929999999999992 3.5322848327636716 0.08786249999999995 Q 3.571884832763671 0.10642499999999999 3.5978723327636715 0.13674374999999994 Q 3.6238598327636713 0.1670625 3.6368535827636714 0.20480624999999997 Q 3.6498473327636716 0.24254999999999993 3.6498473327636716 0.2796749999999999 Q 3.6498473327636716 0.31556249999999997 3.6380910827636717 0.35206874999999993 Q 3.6263348327636713 0.38857499999999995 3.6003473327636715 0.41827499999999995 Q 3.5743598327636716 0.4479749999999999 3.5347598327636716 0.46653749999999994 Q 3.4951598327636715 0.4850999999999999 3.4394723327636716 0.4850999999999999 Q 3.4011098327636713 0.4850999999999999 3.3689348327636717 0.4820062499999999 Q 3.3367598327636716 0.4789124999999999 3.3107723327636713 0.46901249999999994 L 3.3107723327636713 0.06929999999999992 Z M 3.9313489746093744 0.014849999999999919 L 3.9313489746093744 0.08291249999999994 L 4.454811474609374 0.08291249999999994 L 3.9004114746093745 0.8810999999999999 L 4.650336474609374 0.8810999999999999 L 4.650336474609374 0.8130374999999999 L 4.079848974609375 0.8130374999999999 L 4.629298974609374 0.014849999999999919 L 3.9313489746093744 0.014849999999999919 Z M 4.890974029541015 0.014849999999999919 L 4.890974029541015 0.8810999999999999 L 5.450324029541014 0.8810999999999999 L 5.450324029541014 0.8130374999999999 L 5.003586529541015 0.8130374999999999 L 5.003586529541015 0.4504499999999999 L 5.387211529541014 0.4504499999999999 L 5.387211529541014 0.3935249999999999 L 5.003586529541015 0.3935249999999999 L 5.003586529541015 0.08291249999999994 L 5.450324029541014 0.08291249999999994 L 5.450324029541014 0.014849999999999919 L 4.890974029541015 0.014849999999999919 Z M 6.38895509033203 0.014849999999999919 L 6.38895509033203 0.6769124999999999 L 6.38400509033203 0.6769124999999999 L 5.69719259033203 0 L 5.69100509033203 0 L 5.69100509033203 0.8810999999999999 L 5.74793009033203 0.8810999999999999 L 5.74793009033203 0.2190375 L 5.75288009033203 0.2190375 L 6.43969259033203 0.8959499999999999 L 6.44588009033203 0.8959499999999999 L 6.44588009033203 0.014849999999999919 L 6.38895509033203 0.014849999999999919 Z" fill="#000000" fill-rule="nonzero"></path></g><g></g><g clip-path="url(&quot;#SvgjsClipPath1002&quot;)"><g clip-path="url(&quot;#SvgjsClipPath1000&quot;)"><path d=" M -1.4110581612478494 -0.8333953906663347 C -1.8975911572091269 -0.59240220203938 -1.7138599808736448 -0.6833345761867247 -2.512078993934883 -0.2884954570134364 C -2.512078993934883 -0.13400747522107026 -2.5119446111159465 0.25868898456139067 -2.511959542540273 0.3999775872492819 L -1.4110133669748703 0.9448476580535277 C -1.322171392233211 0.9007999562908569 -1.2499779556154087 0.8650466607414615 -1.1698036726951837 0.8253962634428935 L -2.2541610358340343 0.28876087315461807 C -2.253981858742118 0.11688524773424103 -2.2539594616056284 0.05613674786257117 -2.2540042558786073 -0.17722648293363008 C -1.7427224240964394 -0.4304186452351962 -1.9233180013233924 -0.34103167350562597 -1.4110133669748703 -0.5944776700207396 L -0.3100597256973052 -0.04962999635298304 L -0.3100597256973052 -0.2884879913012731 Z" fill="#313131" transform="matrix(1,0,0,1,0,0)" fill-rule="nonzero"></path></g><g clip-path="url(&quot;#SvgjsClipPath1000&quot;)"><path d=" M -0.31000000000000005 0.4812269327210026 L -1.4109760384140544 -0.06364313808324229 L -1.6523126498005152 0.055808256527391964 L -0.5680150123589707 0.5924212496791774 L -0.5679552866616648 1.0585056600255465 C -0.7601973748631548 1.1537532158032013 -1.1495865241573338 1.3462267410817486 -1.4110954898086654 1.47569712141535 L -2.51207152822272 0.9308345163232676 L -2.51207152822272 1.169692511271558 L -1.411088024096502 1.714570047787967 C -0.5324931538866329 1.2797595056930948 -1.1570149077596827 1.5886384150197062 -0.3100746571216315 1.1695655941647845 C -0.3101717113797524 0.7607133332612352 -0.31002986284865264 0.8925876729113758 -0.31000000000000005 0.4812269327210026 Z" fill="#313131" transform="matrix(1,0,0,1,0,0)" fill-rule="nonzero"></path></g><g clip-path="url(&quot;#SvgjsClipPath1000&quot;)"><path d=" M -1.4110282983991966 -0.4485453943673598 C -1.794332892280396 -0.2589163054229775 -1.7235728723979218 -0.2939603583168727 -2.123145253082657 -0.0960517945835403 C -2.123145253082657 0.01336568287979989 -2.123145253082657 0.0981687073411881 -2.123227375916452 0.20751899339506075 L -0.8747736594312427 0.8253962634428935 C -1.158627501586926 0.965841240656347 -1.1924247805495727 0.9825345730531827 -1.4109536412775652 1.0908769879650293 C -1.4620863038830798 1.0655831551562271 -2.453226784952656 0.5750784003241465 -2.511996871101088 0.5459919857364568 L -2.51207152822272 0.7847977206996044 L -1.4111178869451548 1.3296528600795234 C -1.2598998870802545 1.2548165613559612 -0.8250594821367294 1.0397443253595142 -0.6988142894576153 0.9772712459781516 L -0.698851618018431 0.6736332665900815 L -1.9473426630644557 0.055681339420617704 L -1.4109685727018915 -0.2097023308433963 L -0.3100149314243268 0.33515280853652274 L -0.3100149314243268 0.09629481358823266 Z" fill="#313131" transform="matrix(1,0,0,1,0,0)" fill-rule="nonzero"></path></g></g></g><defs><clipPath id="SvgjsClipPath1002"><path d=" M -2.512078993934883 -0.8333953906663347 h 2.202078993934883 v 2.5478907813326694 h -2.202078993934883 Z"></path></clipPath><clipPath id="SvgjsClipPath1000"><path d=" M -2.512078993934883 -0.8333953906663347 L -0.31000000000000005 -0.8333953906663347 L -0.31000000000000005 1.7144953906663347 L -2.512078993934883 1.7144953906663347 Z"></path></clipPath></defs></svg>